<?xml version="1.0" encoding="UTF-8" standalone="no"?>
<svg
   version="1.1"
   id="svg5821"
   height="64px"
   width="64px"
   xmlns:xlink="http://www.w3.org/1999/xlink"
   xmlns="http://www.w3.org/2000/svg"
   xmlns:svg="http://www.w3.org/2000/svg"
   xmlns:rdf="http://www.w3.org/1999/02/22-rdf-syntax-ns#"
   xmlns:cc="http://creativecommons.org/ns#"
   xmlns:dc="http://purl.org/dc/elements/1.1/">
  <defs
     id="defs5823">
    <linearGradient
       id="linearGradient3861">
      <stop
         id="stop3863"
         offset="0"
         style="stop-color:#d3d7cf;stop-opacity:1;" />
      <stop
         id="stop3865"
         offset="1"
         style="stop-color:#ffffff;stop-opacity:1" />
    </linearGradient>
    <linearGradient
       id="linearGradient3835">
      <stop
         id="stop3837"
         offset="0"
         style="stop-color:#d3d7cf;stop-opacity:1;" />
      <stop
         id="stop3839"
         offset="1"
         style="stop-color:#888a85;stop-opacity:1" />
    </linearGradient>
    <linearGradient
       id="linearGradient3809">
      <stop
         id="stop3811"
         offset="0"
         style="stop-color:#d3d7cf;stop-opacity:1;" />
      <stop
         id="stop3813"
         offset="1"
         style="stop-color:#ffffff;stop-opacity:1" />
    </linearGradient>
    <linearGradient
       gradientTransform="matrix(0.92592581,0,0,0.80000035,81.855382,268.84175)"
       gradientUnits="userSpaceOnUse"
       y2="1278.4147"
       x2="1105.0463"
       y1="1410.0068"
       x1="1119.6676"
       id="linearGradient3815"
       xlink:href="#linearGradient3809" />
    <linearGradient
       gradientTransform="matrix(1,0,0,1.9999971,0,-1227.2365)"
       gradientUnits="userSpaceOnUse"
       y2="1219.9293"
       x2="1097.7356"
       y1="1234.5507"
       x1="1097.7356"
       id="linearGradient3841"
       xlink:href="#linearGradient3835" />
    <linearGradient
       gradientTransform="matrix(0.95238128,0,0,0.92307683,52.620955,84.843064)"
       gradientUnits="userSpaceOnUse"
       y2="1029.8518"
       x2="1105.0463"
       y1="1176.0653"
       x1="1119.6676"
       id="linearGradient3867"
       xlink:href="#linearGradient3861" />
  </defs>
  <metadata
     id="metadata5826">
    <rdf:RDF>
      <cc:Work
         rdf:about="">
        <dc:format>image/svg+xml</dc:format>
        <dc:type
           rdf:resource="http://purl.org/dc/dcmitype/StillImage" />
        <dc:creator>
          <cc:Agent>
            <dc:title>[triplus]</dc:title>
          </cc:Agent>
        </dc:creator>
        <dc:title>RobotWorkbench</dc:title>
        <dc:date>2016-02-26</dc:date>
        <dc:relation>http://www.freecad.org/wiki/index.php?title=Artwork</dc:relation>
        <dc:publisher>
          <cc:Agent>
            <dc:title>FreeCAD</dc:title>
          </cc:Agent>
        </dc:publisher>
        <dc:identifier>FreeCAD/src/Mod/Robot/Gui/Resources/icons/RobotWorkbench.svg</dc:identifier>
        <dc:rights>
          <cc:Agent>
            <dc:title>FreeCAD LGPL2+</dc:title>
          </cc:Agent>
        </dc:rights>
        <cc:license>https://www.gnu.org/copyleft/lesser.html</cc:license>
        <dc:contributor>
          <cc:Agent>
            <dc:title>[agryson] Alexander Gryson</dc:title>
          </cc:Agent>
        </dc:contributor>
      </cc:Work>
    </rdf:RDF>
  </metadata>
  <g
     id="layer1"
     transform="matrix(0.92095438,0,0,0.92095438,0.32779495,-0.24050364)"
     style="stroke-width:1.08583">
    <g
       transform="matrix(0.1367863,0,0,0.1367863,-119.15519,-134.86962)"
       id="g3360"
       style="stroke-width:1.08583">
      <rect
         y="1197.9973"
         x="1024.6289"
         height="58.485413"
         width="160.83475"
         id="rect3679"
         style="color:#000000;display:inline;overflow:visible;visibility:visible;fill:#d3d7cf;fill-opacity:1;fill-rule:evenodd;stroke:#2e3436;stroke-width:15.8764;stroke-linecap:butt;stroke-linejoin:round;stroke-miterlimit:4;stroke-dasharray:none;stroke-dashoffset:0;stroke-opacity:1;marker:none;enable-background:accumulate" />
      <rect
         y="1197.9973"
         x="1039.2502"
         height="58.485386"
         width="131.59204"
         id="rect3679-7"
         style="color:#000000;display:inline;overflow:visible;visibility:visible;fill:url(#linearGradient3841);fill-opacity:1;fill-rule:evenodd;stroke:#d3d7cf;stroke-width:15.8762;stroke-linecap:butt;stroke-linejoin:miter;stroke-miterlimit:4;stroke-dasharray:none;stroke-dashoffset:0;stroke-opacity:1;marker:none;enable-background:accumulate" />
      <rect
         y="1015.2305"
         x="958.83276"
         height="175.45612"
         width="292.42697"
         id="rect3675"
         style="color:#000000;display:inline;overflow:visible;visibility:visible;fill:url(#linearGradient3867);fill-opacity:1;fill-rule:evenodd;stroke:#2e3436;stroke-width:31.7526;stroke-linecap:butt;stroke-linejoin:round;stroke-miterlimit:4;stroke-dasharray:none;stroke-dashoffset:0;stroke-opacity:1;marker:none;enable-background:accumulate" />
      <rect
         y="1263.7933"
         x="900.34741"
         height="160.83482"
         width="409.39771"
         id="rect3677"
         style="color:#000000;display:inline;overflow:visible;visibility:visible;fill:#d3d7cf;fill-opacity:1;fill-rule:evenodd;stroke:#2e3436;stroke-width:31.7526;stroke-linecap:butt;stroke-linejoin:round;stroke-miterlimit:4;stroke-dasharray:none;stroke-dashoffset:0;stroke-opacity:1;marker:none;enable-background:accumulate" />
      <path
         transform="matrix(8.0417438,0,0,8.0417413,865.2561,965.51789)"
         d="m 25.272728,16.181818 a 3.636364,3.636364 0 1 1 -7.272728,0 3.636364,3.636364 0 1 1 7.272728,0 z"
         id="path3681-6-3"
         style="color:#000000;display:inline;overflow:visible;visibility:visible;fill:#d3d7cf;fill-opacity:1;fill-rule:evenodd;stroke:#2e3436;stroke-width:1.97423;stroke-linecap:butt;stroke-linejoin:round;stroke-miterlimit:4;stroke-dasharray:none;stroke-dashoffset:0;stroke-opacity:1;marker:none;enable-background:accumulate" />
      <rect
         y="1285.7253"
         x="922.27942"
         height="116.97083"
         width="365.53369"
         id="rect3677-6"
         style="color:#000000;display:inline;overflow:visible;visibility:visible;fill:url(#linearGradient3815);fill-opacity:1;fill-rule:evenodd;stroke:#ffffff;stroke-width:15.8762;stroke-linecap:butt;stroke-linejoin:miter;stroke-miterlimit:4;stroke-dasharray:none;stroke-dashoffset:0;stroke-opacity:1;marker:none;enable-background:accumulate" />
      <rect
         y="1037.1625"
         x="980.76483"
         height="131.59213"
         width="248.56291"
         id="rect3675-5"
         style="color:#000000;display:inline;overflow:visible;visibility:visible;fill:none;stroke:#ffffff;stroke-width:15.8762;stroke-linecap:butt;stroke-linejoin:miter;stroke-miterlimit:4;stroke-dasharray:none;stroke-dashoffset:0;stroke-opacity:1;marker:none;enable-background:accumulate" />
      <path
         transform="matrix(4.0208701,0,0,4.0208758,952.25319,1030.5828)"
         d="m 25.272728,16.181818 a 3.636364,3.636364 0 1 1 -7.272728,0 3.636364,3.636364 0 1 1 7.272728,0 z"
         id="path3681-6-3-3"
         style="color:#000000;display:inline;overflow:visible;visibility:visible;fill:#888a85;fill-opacity:1;fill-rule:evenodd;stroke:#ffffff;stroke-width:3.94847;stroke-linecap:butt;stroke-linejoin:round;stroke-miterlimit:4;stroke-dasharray:none;stroke-dashoffset:0;stroke-opacity:1;marker:none;enable-background:accumulate" />
      <path
         transform="matrix(8.0417439,0,0,8.041741,996.84825,965.51789)"
         d="m 25.272728,16.181818 a 3.636364,3.636364 0 1 1 -7.272728,0 3.636364,3.636364 0 1 1 7.272728,0 z"
         id="path3681-6-3-5"
         style="color:#000000;display:inline;overflow:visible;visibility:visible;fill:#d3d7cf;fill-opacity:1;fill-rule:evenodd;stroke:#2e3436;stroke-width:1.97423;stroke-linecap:butt;stroke-linejoin:round;stroke-miterlimit:4;stroke-dasharray:none;stroke-dashoffset:0;stroke-opacity:1;marker:none;enable-background:accumulate" />
      <path
         transform="matrix(4.0208701,0,0,4.0208758,1083.8454,1030.5828)"
         d="m 25.272728,16.181818 a 3.636364,3.636364 0 1 1 -7.272728,0 3.636364,3.636364 0 1 1 7.272728,0 z"
         id="path3681-6-3-3-6"
         style="color:#000000;display:inline;overflow:visible;visibility:visible;fill:#888a85;fill-opacity:1;fill-rule:evenodd;stroke:#ffffff;stroke-width:3.94847;stroke-linecap:butt;stroke-linejoin:round;stroke-miterlimit:4;stroke-dasharray:none;stroke-dashoffset:0;stroke-opacity:1;marker:none;enable-background:accumulate" />
    </g>
  </g>
  <g
     id="g1"
     transform="matrix(0.28595186,0,0,0.28595186,31.390718,37.042924)"
     style="stroke-width:3.49709">
    <path
       style="fill:#306998;fill-opacity:1;stroke-width:3.49709"
       d="m 56.918785,-18.999081 c -4.583653,0.0213 -8.960939,0.412218 -12.8125,1.09375 -11.346216,2.004504 -13.406249,6.200102 -13.40625,13.9375 v 10.21875 h 26.8125 v 3.40625 h -26.8125 -10.0625 c -7.792459,0 -14.6157588,4.683717 -16.7499998,13.59375 -2.46182,10.212966 -2.5710151,16.586023 0,27.25 1.9059283,7.937852 6.4575428,13.593748 14.2499998,13.59375 h 9.21875 v -12.25 c 0,-8.849902 7.657144,-16.656248 16.75,-16.65625 h 26.78125 c 7.454951,0 13.406253,-6.138164 13.40625,-13.625 v -25.53125 c 0,-7.266339 -6.12998,-12.724777 -13.40625,-13.9375 -4.605987,-0.766725 -9.385097,-1.115048 -13.96875,-1.09375 z m -14.5,8.21875 c 2.769547,0 5.03125,2.298646 5.03125,5.125 -2e-6,2.816336 -2.261703,5.09375 -5.03125,5.09375 -2.779476,-1e-6 -5.03125,-2.277415 -5.03125,-5.09375 -10e-7,-2.826353 2.251774,-5.125 5.03125,-5.125 z"
       id="path1948" />
    <path
       style="fill:#ffd43b;fill-opacity:1;stroke-width:3.49709"
       d="m 87.637535,9.657169 v 11.90625 c 0,9.230755 -7.825895,16.999999 -16.75,17 h -26.78125 c -7.335833,0 -13.406249,6.278483 -13.40625,13.625 v 25.531247 c 0,7.26634 6.318588,11.54032 13.40625,13.625 8.487331,2.49561 16.626237,2.94663 26.78125,0 6.750155,-1.95439 13.406253,-5.88761 13.40625,-13.625 V 67.500919 h -26.78125 v -3.40625 h 26.78125 13.406254 c 7.792461,0 10.696251,-5.435408 13.406241,-13.59375 2.79933,-8.398886 2.68022,-16.475776 0,-27.25 -1.92578,-7.757441 -5.60387,-13.59375 -13.406241,-13.59375 z m -15.0625,64.65625 c 2.779478,3e-6 5.03125,2.277417 5.03125,5.093747 -2e-6,2.82635 -2.251775,5.125 -5.03125,5.125 -2.76955,0 -5.03125,-2.29865 -5.03125,-5.125 2e-6,-2.81633 2.261697,-5.093747 5.03125,-5.093747 z"
       id="path1950" />
  </g>
</svg>
